<?xml version="1.0" encoding="UTF-8"?>
<!DOCTYPE svg
PUBLIC "-//W3C//DTD SVG 1.1//EN"
       "http://www.w3.org/Graphics/SVG/1.1/DTD/svg11.dtd">
<svg viewBox="82 6 1566 841" width="1484px" height="835px" xmlns="http://www.w3.org/2000/svg" version="1.1">
   <line x1="1183" y1="132" x2="1173" y2="132" style="stroke:#cb0;stroke-width:1;"/>
   <line x1="1008" y1="89" x2="998" y2="89" style="stroke:#cb0;stroke-width:1;"/>
   <line x1="1173" y1="132" x2="1008" y2="89" style="stroke:#cb0;stroke-width:1;"/>
   <line x1="1175.5" y1="132" x2="1179.0355339059" y2="135.53553390593" style="stroke:#cb0;stroke-width:2;"/>
   <line x1="1175.5" y1="132" x2="1179.0355339059" y2="128.46446609407" style="stroke:#cb0;stroke-width:2;"/>
   <line x1="1003" y1="89" x2="1006.5355339059" y2="92.535533905933" style="stroke:#cb0;stroke-width:2;"/>
   <line x1="1003" y1="89" x2="1006.5355339059" y2="85.464466094067" style="stroke:#cb0;stroke-width:2;"/>
   <line x1="1296" y1="152" x2="1306" y2="152" style="stroke:#333;stroke-width:1;"/>
   <line x1="1431" y1="274" x2="1441" y2="274" style="stroke:#333;stroke-width:1;"/>
   <line x1="1306" y1="152" x2="1431" y2="274" style="stroke:#333;stroke-width:1;"/>
   <line x1="1303.5" y1="152" x2="1299.9644660941" y2="155.53553390593" style="stroke:#333;stroke-width:2;"/>
   <line x1="1303.5" y1="152" x2="1299.9644660941" y2="148.46446609407" style="stroke:#333;stroke-width:2;"/>
   <line x1="1436" y1="274" x2="1432.4644660941" y2="277.53553390593" style="stroke:#333;stroke-width:2;"/>
   <line x1="1436" y1="274" x2="1432.4644660941" y2="270.46446609407" style="stroke:#333;stroke-width:2;"/>
   <line x1="1478" y1="71" x2="1468" y2="71" style="stroke:#bbb;stroke-width:1;"/>
   <line x1="1008" y1="89" x2="998" y2="89" style="stroke:#bbb;stroke-width:1;"/>
   <line x1="1468" y1="71" x2="1008" y2="89" style="stroke:#bbb;stroke-width:1;"/>
   <line x1="1470.5" y1="71" x2="1474.0355339059" y2="74.535533905933" style="stroke:#bbb;stroke-width:2;"/>
   <line x1="1470.5" y1="71" x2="1474.0355339059" y2="67.464466094067" style="stroke:#bbb;stroke-width:2;"/>
   <line x1="1003" y1="89" x2="1006.5355339059" y2="92.535533905933" style="stroke:#bbb;stroke-width:2;"/>
   <line x1="1003" y1="89" x2="1006.5355339059" y2="85.464466094067" style="stroke:#bbb;stroke-width:2;"/>
   <line x1="370" y1="254" x2="380" y2="254" style="stroke:#0b0;stroke-width:1;"/>
   <line x1="416" y1="114" x2="406" y2="114" style="stroke:#0b0;stroke-width:1;"/>
   <line x1="380" y1="254" x2="416" y2="114" style="stroke:#0b0;stroke-width:1;"/>
   <line x1="377.5" y1="254" x2="373.96446609407" y2="257.53553390593" style="stroke:#0b0;stroke-width:2;"/>
   <line x1="377.5" y1="254" x2="373.96446609407" y2="250.46446609407" style="stroke:#0b0;stroke-width:2;"/>
   <line x1="411" y1="114" x2="414.53553390593" y2="117.53553390593" style="stroke:#0b0;stroke-width:2;"/>
   <line x1="411" y1="114" x2="414.53553390593" y2="110.46446609407" style="stroke:#0b0;stroke-width:2;"/>
   <line x1="370" y1="274" x2="380" y2="274" style="stroke:#b0b;stroke-width:1;"/>
   <line x1="401" y1="441" x2="411" y2="441" style="stroke:#b0b;stroke-width:1;"/>
   <line x1="380" y1="274" x2="401" y2="441" style="stroke:#b0b;stroke-width:1;"/>
   <line x1="377.5" y1="274" x2="373.96446609407" y2="277.53553390593" style="stroke:#b0b;stroke-width:2;"/>
   <line x1="377.5" y1="274" x2="373.96446609407" y2="270.46446609407" style="stroke:#b0b;stroke-width:2;"/>
   <line x1="406" y1="441" x2="402.46446609407" y2="444.53553390593" style="stroke:#b0b;stroke-width:2;"/>
   <line x1="406" y1="441" x2="402.46446609407" y2="437.46446609407" style="stroke:#b0b;stroke-width:2;"/>
   <line x1="411" y1="461" x2="401" y2="461" style="stroke:#0bf;stroke-width:1;"/>
   <line x1="190" y1="106" x2="180" y2="106" style="stroke:#0bf;stroke-width:1;"/>
   <line x1="401" y1="461" x2="190" y2="106" style="stroke:#0bf;stroke-width:1;"/>
   <line x1="403.5" y1="461" x2="407.03553390593" y2="464.53553390593" style="stroke:#0bf;stroke-width:2;"/>
   <line x1="403.5" y1="461" x2="407.03553390593" y2="457.46446609407" style="stroke:#0bf;stroke-width:2;"/>
   <line x1="185" y1="106" x2="188.53553390593" y2="109.53553390593" style="stroke:#0bf;stroke-width:2;"/>
   <line x1="185" y1="106" x2="188.53553390593" y2="102.46446609407" style="stroke:#0bf;stroke-width:2;"/>
   <line x1="678" y1="103" x2="688" y2="103" style="stroke:#0b0;stroke-width:1;"/>
   <line x1="875" y1="89" x2="885" y2="89" style="stroke:#0b0;stroke-width:1;"/>
   <line x1="688" y1="103" x2="875" y2="89" style="stroke:#0b0;stroke-width:1;"/>
   <line x1="685.5" y1="103" x2="681.96446609407" y2="106.53553390593" style="stroke:#0b0;stroke-width:2;"/>
   <line x1="685.5" y1="103" x2="681.96446609407" y2="99.464466094067" style="stroke:#0b0;stroke-width:2;"/>
   <line x1="880" y1="89" x2="876.46446609407" y2="92.535533905933" style="stroke:#0b0;stroke-width:2;"/>
   <line x1="880" y1="89" x2="876.46446609407" y2="85.464466094067" style="stroke:#0b0;stroke-width:2;"/>
   <line x1="615" y1="123" x2="605" y2="123" style="stroke:#b0b;stroke-width:1;"/>
   <line x1="553" y1="441" x2="543" y2="441" style="stroke:#b0b;stroke-width:1;"/>
   <line x1="605" y1="123" x2="553" y2="441" style="stroke:#b0b;stroke-width:1;"/>
   <line x1="607.5" y1="123" x2="611.03553390593" y2="126.53553390593" style="stroke:#b0b;stroke-width:2;"/>
   <line x1="607.5" y1="123" x2="611.03553390593" y2="119.46446609407" style="stroke:#b0b;stroke-width:2;"/>
   <line x1="548" y1="441" x2="551.53553390593" y2="444.53553390593" style="stroke:#b0b;stroke-width:2;"/>
   <line x1="548" y1="441" x2="551.53553390593" y2="437.46446609407" style="stroke:#b0b;stroke-width:2;"/>
   <line x1="1160" y1="390" x2="1150" y2="390" style="stroke:#0bf;stroke-width:1;"/>
   <line x1="1008" y1="89" x2="998" y2="89" style="stroke:#0bf;stroke-width:1;"/>
   <line x1="1150" y1="390" x2="1008" y2="89" style="stroke:#0bf;stroke-width:1;"/>
   <line x1="1152.5" y1="390" x2="1156.0355339059" y2="393.53553390593" style="stroke:#0bf;stroke-width:2;"/>
   <line x1="1152.5" y1="390" x2="1156.0355339059" y2="386.46446609407" style="stroke:#0bf;stroke-width:2;"/>
   <line x1="1003" y1="89" x2="1006.5355339059" y2="92.535533905933" style="stroke:#0bf;stroke-width:2;"/>
   <line x1="1003" y1="89" x2="1006.5355339059" y2="85.464466094067" style="stroke:#0bf;stroke-width:2;"/>
   <line x1="1264" y1="410" x2="1274" y2="410" style="stroke:#b0b;stroke-width:1;"/>
   <line x1="1453" y1="683" x2="1463" y2="683" style="stroke:#b0b;stroke-width:1;"/>
   <line x1="1274" y1="410" x2="1453" y2="683" style="stroke:#b0b;stroke-width:1;"/>
   <line x1="1271.5" y1="410" x2="1267.9644660941" y2="413.53553390593" style="stroke:#b0b;stroke-width:2;"/>
   <line x1="1271.5" y1="410" x2="1267.9644660941" y2="406.46446609407" style="stroke:#b0b;stroke-width:2;"/>
   <line x1="1458" y1="683" x2="1454.4644660941" y2="686.53553390593" style="stroke:#b0b;stroke-width:2;"/>
   <line x1="1458" y1="683" x2="1454.4644660941" y2="679.46446609407" style="stroke:#b0b;stroke-width:2;"/>
   <line x1="741" y1="547" x2="751" y2="547" style="stroke:#0b0;stroke-width:1;"/>
   <line x1="875" y1="89" x2="885" y2="89" style="stroke:#0b0;stroke-width:1;"/>
   <line x1="751" y1="547" x2="875" y2="89" style="stroke:#0b0;stroke-width:1;"/>
   <line x1="748.5" y1="547" x2="744.96446609407" y2="550.53553390593" style="stroke:#0b0;stroke-width:2;"/>
   <line x1="748.5" y1="547" x2="744.96446609407" y2="543.46446609407" style="stroke:#0b0;stroke-width:2;"/>
   <line x1="880" y1="89" x2="876.46446609407" y2="92.535533905933" style="stroke:#0b0;stroke-width:2;"/>
   <line x1="880" y1="89" x2="876.46446609407" y2="85.464466094067" style="stroke:#0b0;stroke-width:2;"/>
   <line x1="679" y1="567" x2="669" y2="567" style="stroke:#c00;stroke-width:1;"/>
   <line x1="553" y1="441" x2="543" y2="441" style="stroke:#c00;stroke-width:1;"/>
   <line x1="669" y1="567" x2="553" y2="441" style="stroke:#c00;stroke-width:1;"/>
   <line x1="671.5" y1="567" x2="675.03553390593" y2="570.53553390593" style="stroke:#c00;stroke-width:2;"/>
   <line x1="671.5" y1="567" x2="675.03553390593" y2="563.46446609407" style="stroke:#c00;stroke-width:2;"/>
   <line x1="548" y1="441" x2="551.53553390593" y2="444.53553390593" style="stroke:#c00;stroke-width:2;"/>
   <line x1="548" y1="441" x2="551.53553390593" y2="437.46446609407" style="stroke:#c00;stroke-width:2;"/>
   <line x1="888" y1="401" x2="878" y2="401" style="stroke:#0b0;stroke-width:1;"/>
   <line x1="553" y1="441" x2="543" y2="441" style="stroke:#0b0;stroke-width:1;"/>
   <line x1="878" y1="401" x2="553" y2="441" style="stroke:#0b0;stroke-width:1;"/>
   <line x1="880.5" y1="401" x2="884.03553390593" y2="404.53553390593" style="stroke:#0b0;stroke-width:2;"/>
   <line x1="880.5" y1="401" x2="884.03553390593" y2="397.46446609407" style="stroke:#0b0;stroke-width:2;"/>
   <line x1="548" y1="441" x2="551.53553390593" y2="444.53553390593" style="stroke:#0b0;stroke-width:2;"/>
   <line x1="548" y1="441" x2="551.53553390593" y2="437.46446609407" style="stroke:#0b0;stroke-width:2;"/>
   <line x1="981" y1="421" x2="991" y2="421" style="stroke:#333;stroke-width:1;"/>
   <line x1="1150" y1="370" x2="1160" y2="370" style="stroke:#333;stroke-width:1;"/>
   <line x1="991" y1="421" x2="1150" y2="370" style="stroke:#333;stroke-width:1;"/>
   <line x1="988.5" y1="421" x2="984.96446609407" y2="424.53553390593" style="stroke:#333;stroke-width:2;"/>
   <line x1="988.5" y1="421" x2="984.96446609407" y2="417.46446609407" style="stroke:#333;stroke-width:2;"/>
   <line x1="1155" y1="370" x2="1151.4644660941" y2="373.53553390593" style="stroke:#333;stroke-width:2;"/>
   <line x1="1155" y1="370" x2="1151.4644660941" y2="366.46446609407" style="stroke:#333;stroke-width:2;"/>
   <line x1="998" y1="229" x2="1008" y2="229" style="stroke:#0bf;stroke-width:1;"/>
   <line x1="1431" y1="274" x2="1441" y2="274" style="stroke:#0bf;stroke-width:1;"/>
   <line x1="1008" y1="229" x2="1431" y2="274" style="stroke:#0bf;stroke-width:1;"/>
   <line x1="1005.5" y1="229" x2="1001.9644660941" y2="232.53553390593" style="stroke:#0bf;stroke-width:2;"/>
   <line x1="1005.5" y1="229" x2="1001.9644660941" y2="225.46446609407" style="stroke:#0bf;stroke-width:2;"/>
   <line x1="1436" y1="274" x2="1432.4644660941" y2="277.53553390593" style="stroke:#0bf;stroke-width:2;"/>
   <line x1="1436" y1="274" x2="1432.4644660941" y2="270.46446609407" style="stroke:#0bf;stroke-width:2;"/>
   <line x1="1042" y1="597" x2="1052" y2="597" style="stroke:#b0b;stroke-width:1;"/>
   <line x1="1150" y1="370" x2="1160" y2="370" style="stroke:#b0b;stroke-width:1;"/>
   <line x1="1052" y1="597" x2="1150" y2="370" style="stroke:#b0b;stroke-width:1;"/>
   <line x1="1049.5" y1="597" x2="1045.9644660941" y2="600.53553390593" style="stroke:#b0b;stroke-width:2;"/>
   <line x1="1049.5" y1="597" x2="1045.9644660941" y2="593.46446609407" style="stroke:#b0b;stroke-width:2;"/>
   <line x1="1155" y1="370" x2="1151.4644660941" y2="373.53553390593" style="stroke:#b0b;stroke-width:2;"/>
   <line x1="1155" y1="370" x2="1151.4644660941" y2="366.46446609407" style="stroke:#b0b;stroke-width:2;"/>
   <line x1="1042" y1="617" x2="1052" y2="617" style="stroke:#bbb;stroke-width:1;"/>
   <line x1="1061" y1="736" x2="1051" y2="736" style="stroke:#bbb;stroke-width:1;"/>
   <line x1="1052" y1="617" x2="1061" y2="736" style="stroke:#bbb;stroke-width:1;"/>
   <line x1="1049.5" y1="617" x2="1045.9644660941" y2="620.53553390593" style="stroke:#bbb;stroke-width:2;"/>
   <line x1="1049.5" y1="617" x2="1045.9644660941" y2="613.46446609407" style="stroke:#bbb;stroke-width:2;"/>
   <line x1="1056" y1="736" x2="1059.5355339059" y2="739.53553390593" style="stroke:#bbb;stroke-width:2;"/>
   <line x1="1056" y1="736" x2="1059.5355339059" y2="732.46446609407" style="stroke:#bbb;stroke-width:2;"/>
   <line x1="647" y1="282" x2="657" y2="282" style="stroke:#0b0;stroke-width:1;"/>
   <line x1="875" y1="89" x2="885" y2="89" style="stroke:#0b0;stroke-width:1;"/>
   <line x1="657" y1="282" x2="875" y2="89" style="stroke:#0b0;stroke-width:1;"/>
   <line x1="654.5" y1="282" x2="650.96446609407" y2="285.53553390593" style="stroke:#0b0;stroke-width:2;"/>
   <line x1="654.5" y1="282" x2="650.96446609407" y2="278.46446609407" style="stroke:#0b0;stroke-width:2;"/>
   <line x1="880" y1="89" x2="876.46446609407" y2="92.535533905933" style="stroke:#0b0;stroke-width:2;"/>
   <line x1="880" y1="89" x2="876.46446609407" y2="85.464466094067" style="stroke:#0b0;stroke-width:2;"/>
   <line x1="585" y1="302" x2="575" y2="302" style="stroke:#333;stroke-width:1;"/>
   <line x1="553" y1="441" x2="543" y2="441" style="stroke:#333;stroke-width:1;"/>
   <line x1="575" y1="302" x2="553" y2="441" style="stroke:#333;stroke-width:1;"/>
   <line x1="577.5" y1="302" x2="581.03553390593" y2="305.53553390593" style="stroke:#333;stroke-width:2;"/>
   <line x1="577.5" y1="302" x2="581.03553390593" y2="298.46446609407" style="stroke:#333;stroke-width:2;"/>
   <line x1="548" y1="441" x2="551.53553390593" y2="444.53553390593" style="stroke:#333;stroke-width:2;"/>
   <line x1="548" y1="441" x2="551.53553390593" y2="437.46446609407" style="stroke:#333;stroke-width:2;"/>
   <line x1="163" y1="560" x2="153" y2="560" style="stroke:#c00;stroke-width:1;"/>
   <line x1="159" y1="355" x2="169" y2="355" style="stroke:#c00;stroke-width:1;"/>
   <line x1="153" y1="560" x2="159" y2="355" style="stroke:#c00;stroke-width:1;"/>
   <line x1="155.5" y1="560" x2="159.03553390593" y2="563.53553390593" style="stroke:#c00;stroke-width:2;"/>
   <line x1="155.5" y1="560" x2="159.03553390593" y2="556.46446609407" style="stroke:#c00;stroke-width:2;"/>
   <line x1="164" y1="355" x2="160.46446609407" y2="358.53553390593" style="stroke:#c00;stroke-width:2;"/>
   <line x1="164" y1="355" x2="160.46446609407" y2="351.46446609407" style="stroke:#c00;stroke-width:2;"/>
   <line x1="236" y1="580" x2="246" y2="580" style="stroke:#0bf;stroke-width:1;"/>
   <line x1="401" y1="441" x2="411" y2="441" style="stroke:#0bf;stroke-width:1;"/>
   <line x1="246" y1="580" x2="401" y2="441" style="stroke:#0bf;stroke-width:1;"/>
   <line x1="243.5" y1="580" x2="239.96446609407" y2="583.53553390593" style="stroke:#0bf;stroke-width:2;"/>
   <line x1="243.5" y1="580" x2="239.96446609407" y2="576.46446609407" style="stroke:#0bf;stroke-width:2;"/>
   <line x1="406" y1="441" x2="402.46446609407" y2="444.53553390593" style="stroke:#0bf;stroke-width:2;"/>
   <line x1="406" y1="441" x2="402.46446609407" y2="437.46446609407" style="stroke:#0bf;stroke-width:2;"/>
   <rect width="113" height="20" x="1183" y="102" style="fill:#007;stroke:black;"/>
   <text width="113" height="20" x="1188" y="116" style="fill:#fff;" font-family="Arial" font-size="16px"> active</text>
   <rect width="113" height="20" x="1183" y="122" style="fill:none;stroke:black;"/>
   <text width="113" height="20" x="1188" y="136" style="fill:black;" font-family="Arial" font-size="16px">id_user</text>
   <rect width="113" height="20" x="1183" y="142" style="fill:none;stroke:black;"/>
   <text width="113" height="20" x="1188" y="156" style="fill:black;" font-family="Arial" font-size="16px">id_subscription</text>
   <rect width="113" height="20" x="1183" y="162" style="fill:none;stroke:black;"/>
   <text width="113" height="20" x="1188" y="176" style="fill:black;" font-family="Arial" font-size="16px">start</text>
   <rect width="113" height="20" x="1183" y="182" style="fill:none;stroke:black;"/>
   <text width="113" height="20" x="1188" y="196" style="fill:black;" font-family="Arial" font-size="16px">end</text>
   <rect width="70" height="20" x="1478" y="21" style="fill:#007;stroke:black;"/>
   <text width="70" height="20" x="1483" y="35" style="fill:#fff;" font-family="Arial" font-size="16px"> address</text>
   <rect width="70" height="20" x="1478" y="41" style="fill:#aea;stroke:black;"/>
   <text width="70" height="20" x="1483" y="55" style="fill:black;" font-family="Arial" font-size="16px">id</text>
   <rect width="70" height="20" x="1478" y="61" style="fill:none;stroke:black;"/>
   <text width="70" height="20" x="1483" y="75" style="fill:black;" font-family="Arial" font-size="16px">id_user</text>
   <rect width="70" height="20" x="1478" y="81" style="fill:none;stroke:black;"/>
   <text width="70" height="20" x="1483" y="95" style="fill:black;" font-family="Arial" font-size="16px">country</text>
   <rect width="70" height="20" x="1478" y="101" style="fill:none;stroke:black;"/>
   <text width="70" height="20" x="1483" y="115" style="fill:black;" font-family="Arial" font-size="16px">region</text>
   <rect width="70" height="20" x="1478" y="121" style="fill:none;stroke:black;"/>
   <text width="70" height="20" x="1483" y="135" style="fill:black;" font-family="Arial" font-size="16px">city</text>
   <rect width="70" height="20" x="1478" y="141" style="fill:none;stroke:black;"/>
   <text width="70" height="20" x="1483" y="155" style="fill:black;" font-family="Arial" font-size="16px">zip_code</text>
   <rect width="70" height="20" x="1478" y="161" style="fill:none;stroke:black;"/>
   <text width="70" height="20" x="1483" y="175" style="fill:black;" font-family="Arial" font-size="16px">address</text>
   <rect width="80" height="20" x="169" y="325" style="fill:#007;stroke:black;"/>
   <text width="80" height="20" x="174" y="339" style="fill:#fff;" font-family="Arial" font-size="16px"> author</text>
   <rect width="80" height="20" x="169" y="345" style="fill:#aea;stroke:black;"/>
   <text width="80" height="20" x="174" y="359" style="fill:black;" font-family="Arial" font-size="16px">id</text>
   <rect width="80" height="20" x="169" y="365" style="fill:none;stroke:black;"/>
   <text width="80" height="20" x="174" y="379" style="fill:black;" font-family="Arial" font-size="16px">name</text>
   <rect width="80" height="20" x="169" y="385" style="fill:none;stroke:black;"/>
   <text width="80" height="20" x="174" y="399" style="fill:black;" font-family="Arial" font-size="16px">surname</text>
   <rect width="80" height="20" x="169" y="405" style="fill:none;stroke:black;"/>
   <text width="80" height="20" x="174" y="419" style="fill:black;" font-family="Arial" font-size="16px">biography</text>
   <rect width="89" height="20" x="281" y="224" style="fill:#007;stroke:black;"/>
   <text width="89" height="20" x="286" y="238" style="fill:#fff;" font-family="Arial" font-size="16px"> belongs</text>
   <rect width="89" height="20" x="281" y="244" style="fill:none;stroke:black;"/>
   <text width="89" height="20" x="286" y="258" style="fill:black;" font-family="Arial" font-size="16px">id_category</text>
   <rect width="89" height="20" x="281" y="264" style="fill:none;stroke:black;"/>
   <text width="89" height="20" x="286" y="278" style="fill:black;" font-family="Arial" font-size="16px">id_book</text>
   <rect width="132" height="20" x="411" y="411" style="fill:#007;stroke:black;"/>
   <text width="132" height="20" x="416" y="425" style="fill:#fff;" font-family="Arial" font-size="16px"> book</text>
   <rect width="132" height="20" x="411" y="431" style="fill:#aea;stroke:black;"/>
   <text width="132" height="20" x="416" y="445" style="fill:black;" font-family="Arial" font-size="16px">id</text>
   <rect width="132" height="20" x="411" y="451" style="fill:none;stroke:black;"/>
   <text width="132" height="20" x="416" y="465" style="fill:black;" font-family="Arial" font-size="16px">id_promotion</text>
   <rect width="132" height="20" x="411" y="471" style="fill:none;stroke:black;"/>
   <text width="132" height="20" x="416" y="485" style="fill:black;" font-family="Arial" font-size="16px">title</text>
   <rect width="132" height="20" x="411" y="491" style="fill:none;stroke:black;"/>
   <text width="132" height="20" x="416" y="505" style="fill:black;" font-family="Arial" font-size="16px">price</text>
   <rect width="132" height="20" x="411" y="511" style="fill:none;stroke:black;"/>
   <text width="132" height="20" x="416" y="525" style="fill:black;" font-family="Arial" font-size="16px">pubblication_date</text>
   <rect width="132" height="20" x="411" y="531" style="fill:none;stroke:black;"/>
   <text width="132" height="20" x="416" y="545" style="fill:black;" font-family="Arial" font-size="16px">type</text>
   <rect width="132" height="20" x="411" y="551" style="fill:none;stroke:black;"/>
   <text width="132" height="20" x="416" y="565" style="fill:black;" font-family="Arial" font-size="16px">availability</text>
   <rect width="132" height="20" x="411" y="571" style="fill:none;stroke:black;"/>
   <text width="132" height="20" x="416" y="585" style="fill:black;" font-family="Arial" font-size="16px">pages</text>
   <rect width="132" height="20" x="411" y="591" style="fill:none;stroke:black;"/>
   <text width="132" height="20" x="416" y="605" style="fill:black;" font-family="Arial" font-size="16px">dimension</text>
   <rect width="132" height="20" x="411" y="611" style="fill:none;stroke:black;"/>
   <text width="132" height="20" x="416" y="625" style="fill:black;" font-family="Arial" font-size="16px">size</text>
   <rect width="132" height="20" x="411" y="631" style="fill:none;stroke:black;"/>
   <text width="132" height="20" x="416" y="645" style="fill:black;" font-family="Arial" font-size="16px">isbn10</text>
   <rect width="132" height="20" x="411" y="651" style="fill:none;stroke:black;"/>
   <text width="132" height="20" x="416" y="665" style="fill:black;" font-family="Arial" font-size="16px">isbn13</text>
   <rect width="132" height="20" x="411" y="671" style="fill:none;stroke:black;"/>
   <text width="132" height="20" x="416" y="685" style="fill:black;" font-family="Arial" font-size="16px">language</text>
   <rect width="132" height="20" x="411" y="691" style="fill:none;stroke:black;"/>
   <text width="132" height="20" x="416" y="705" style="fill:black;" font-family="Arial" font-size="16px">description</text>
   <rect width="132" height="20" x="411" y="711" style="fill:none;stroke:black;"/>
   <text width="132" height="20" x="416" y="725" style="fill:black;" font-family="Arial" font-size="16px">cover</text>
   <rect width="132" height="20" x="411" y="731" style="fill:none;stroke:black;"/>
   <text width="132" height="20" x="416" y="745" style="fill:black;" font-family="Arial" font-size="16px">publisher</text>
   <rect width="63" height="20" x="615" y="73" style="fill:#007;stroke:black;"/>
   <text width="63" height="20" x="620" y="87" style="fill:#fff;" font-family="Arial" font-size="16px"> cart</text>
   <rect width="63" height="20" x="615" y="93" style="fill:none;stroke:black;"/>
   <text width="63" height="20" x="620" y="107" style="fill:black;" font-family="Arial" font-size="16px">id_user</text>
   <rect width="63" height="20" x="615" y="113" style="fill:none;stroke:black;"/>
   <text width="63" height="20" x="620" y="127" style="fill:black;" font-family="Arial" font-size="16px">id_book</text>
   <rect width="63" height="20" x="615" y="133" style="fill:none;stroke:black;"/>
   <text width="63" height="20" x="620" y="147" style="fill:black;" font-family="Arial" font-size="16px">amount</text>
   <rect width="71" height="20" x="335" y="84" style="fill:#007;stroke:black;"/>
   <text width="71" height="20" x="340" y="98" style="fill:#fff;" font-family="Arial" font-size="16px"> category</text>
   <rect width="71" height="20" x="335" y="104" style="fill:#aea;stroke:black;"/>
   <text width="71" height="20" x="340" y="118" style="fill:black;" font-family="Arial" font-size="16px">id</text>
   <rect width="71" height="20" x="335" y="124" style="fill:none;stroke:black;"/>
   <text width="71" height="20" x="340" y="138" style="fill:black;" font-family="Arial" font-size="16px">name</text>
   <rect width="90" height="20" x="961" y="706" style="fill:#007;stroke:black;"/>
   <text width="90" height="20" x="966" y="720" style="fill:#fff;" font-family="Arial" font-size="16px"> coupon</text>
   <rect width="90" height="20" x="961" y="726" style="fill:#aea;stroke:black;"/>
   <text width="90" height="20" x="966" y="740" style="fill:black;" font-family="Arial" font-size="16px">id</text>
   <rect width="90" height="20" x="961" y="746" style="fill:none;stroke:black;"/>
   <text width="90" height="20" x="966" y="760" style="fill:black;" font-family="Arial" font-size="16px">name</text>
   <rect width="90" height="20" x="961" y="766" style="fill:none;stroke:black;"/>
   <text width="90" height="20" x="966" y="780" style="fill:black;" font-family="Arial" font-size="16px">code</text>
   <rect width="90" height="20" x="961" y="786" style="fill:none;stroke:black;"/>
   <text width="90" height="20" x="966" y="800" style="fill:black;" font-family="Arial" font-size="16px">value</text>
   <rect width="90" height="20" x="961" y="806" style="fill:none;stroke:black;"/>
   <text width="90" height="20" x="966" y="820" style="fill:black;" font-family="Arial" font-size="16px">expire_date</text>
   <rect width="83" height="20" x="97" y="76" style="fill:#007;stroke:black;"/>
   <text width="83" height="20" x="102" y="90" style="fill:#fff;" font-family="Arial" font-size="16px"> promotion</text>
   <rect width="83" height="20" x="97" y="96" style="fill:#aea;stroke:black;"/>
   <text width="83" height="20" x="102" y="110" style="fill:black;" font-family="Arial" font-size="16px">id</text>
   <rect width="83" height="20" x="97" y="116" style="fill:none;stroke:black;"/>
   <text width="83" height="20" x="102" y="130" style="fill:black;" font-family="Arial" font-size="16px">end</text>
   <rect width="83" height="20" x="97" y="136" style="fill:none;stroke:black;"/>
   <text width="83" height="20" x="102" y="150" style="fill:black;" font-family="Arial" font-size="16px">discount</text>
   <rect width="104" height="20" x="1160" y="340" style="fill:#007;stroke:black;"/>
   <text width="104" height="20" x="1165" y="354" style="fill:#fff;" font-family="Arial" font-size="16px"> purchase</text>
   <rect width="104" height="20" x="1160" y="360" style="fill:#aea;stroke:black;"/>
   <text width="104" height="20" x="1165" y="374" style="fill:black;" font-family="Arial" font-size="16px">id</text>
   <rect width="104" height="20" x="1160" y="380" style="fill:none;stroke:black;"/>
   <text width="104" height="20" x="1165" y="394" style="fill:black;" font-family="Arial" font-size="16px">id_user</text>
   <rect width="104" height="20" x="1160" y="400" style="fill:none;stroke:black;"/>
   <text width="104" height="20" x="1165" y="414" style="fill:black;" font-family="Arial" font-size="16px">id_shipping</text>
   <rect width="104" height="20" x="1160" y="420" style="fill:none;stroke:black;"/>
   <text width="104" height="20" x="1165" y="434" style="fill:black;" font-family="Arial" font-size="16px">tot</text>
   <rect width="104" height="20" x="1160" y="440" style="fill:none;stroke:black;"/>
   <text width="104" height="20" x="1165" y="454" style="fill:black;" font-family="Arial" font-size="16px">payment</text>
   <rect width="104" height="20" x="1160" y="460" style="fill:none;stroke:black;"/>
   <text width="104" height="20" x="1165" y="474" style="fill:black;" font-family="Arial" font-size="16px">date</text>
   <rect width="104" height="20" x="1160" y="480" style="fill:none;stroke:black;"/>
   <text width="104" height="20" x="1165" y="494" style="fill:black;" font-family="Arial" font-size="16px">shipping_cost</text>
   <rect width="62" height="20" x="679" y="517" style="fill:#007;stroke:black;"/>
   <text width="62" height="20" x="684" y="531" style="fill:#fff;" font-family="Arial" font-size="16px"> review</text>
   <rect width="62" height="20" x="679" y="537" style="fill:none;stroke:black;"/>
   <text width="62" height="20" x="684" y="551" style="fill:black;" font-family="Arial" font-size="16px">id_user</text>
   <rect width="62" height="20" x="679" y="557" style="fill:none;stroke:black;"/>
   <text width="62" height="20" x="684" y="571" style="fill:black;" font-family="Arial" font-size="16px">id_book</text>
   <rect width="62" height="20" x="679" y="577" style="fill:#aea;stroke:black;"/>
   <text width="62" height="20" x="684" y="591" style="fill:black;" font-family="Arial" font-size="16px">id</text>
   <rect width="62" height="20" x="679" y="597" style="fill:none;stroke:black;"/>
   <text width="62" height="20" x="684" y="611" style="fill:black;" font-family="Arial" font-size="16px">title</text>
   <rect width="62" height="20" x="679" y="617" style="fill:none;stroke:black;"/>
   <text width="62" height="20" x="684" y="631" style="fill:black;" font-family="Arial" font-size="16px">body</text>
   <rect width="62" height="20" x="679" y="637" style="fill:none;stroke:black;"/>
   <text width="62" height="20" x="684" y="651" style="fill:black;" font-family="Arial" font-size="16px">vote</text>
   <rect width="88" height="20" x="1463" y="653" style="fill:#007;stroke:black;"/>
   <text width="88" height="20" x="1468" y="667" style="fill:#fff;" font-family="Arial" font-size="16px"> shipping</text>
   <rect width="88" height="20" x="1463" y="673" style="fill:#aea;stroke:black;"/>
   <text width="88" height="20" x="1468" y="687" style="fill:black;" font-family="Arial" font-size="16px">id</text>
   <rect width="88" height="20" x="1463" y="693" style="fill:none;stroke:black;"/>
   <text width="88" height="20" x="1468" y="707" style="fill:black;" font-family="Arial" font-size="16px">name</text>
   <rect width="88" height="20" x="1463" y="713" style="fill:none;stroke:black;"/>
   <text width="88" height="20" x="1468" y="727" style="fill:black;" font-family="Arial" font-size="16px">price</text>
   <rect width="88" height="20" x="1463" y="733" style="fill:none;stroke:black;"/>
   <text width="88" height="20" x="1468" y="747" style="fill:black;" font-family="Arial" font-size="16px">description</text>
   <rect width="93" height="20" x="888" y="371" style="fill:#007;stroke:black;"/>
   <text width="93" height="20" x="893" y="385" style="fill:#fff;" font-family="Arial" font-size="16px"> sold</text>
   <rect width="93" height="20" x="888" y="391" style="fill:none;stroke:black;"/>
   <text width="93" height="20" x="893" y="405" style="fill:black;" font-family="Arial" font-size="16px">id_book</text>
   <rect width="93" height="20" x="888" y="411" style="fill:none;stroke:black;"/>
   <text width="93" height="20" x="893" y="425" style="fill:black;" font-family="Arial" font-size="16px">id_purchase</text>
   <rect width="93" height="20" x="888" y="431" style="fill:none;stroke:black;"/>
   <text width="93" height="20" x="893" y="445" style="fill:black;" font-family="Arial" font-size="16px">amount</text>
   <rect width="93" height="20" x="888" y="451" style="fill:none;stroke:black;"/>
   <text width="93" height="20" x="893" y="465" style="fill:black;" font-family="Arial" font-size="16px">price</text>
   <rect width="95" height="20" x="1441" y="244" style="fill:#007;stroke:black;"/>
   <text width="95" height="20" x="1446" y="258" style="fill:#fff;" font-family="Arial" font-size="16px"> subscription</text>
   <rect width="95" height="20" x="1441" y="264" style="fill:#aea;stroke:black;"/>
   <text width="95" height="20" x="1446" y="278" style="fill:black;" font-family="Arial" font-size="16px">id</text>
   <rect width="95" height="20" x="1441" y="284" style="fill:none;stroke:black;"/>
   <text width="95" height="20" x="1446" y="298" style="fill:black;" font-family="Arial" font-size="16px">name</text>
   <rect width="95" height="20" x="1441" y="304" style="fill:none;stroke:black;"/>
   <text width="95" height="20" x="1446" y="318" style="fill:black;" font-family="Arial" font-size="16px">description</text>
   <rect width="95" height="20" x="1441" y="324" style="fill:none;stroke:black;"/>
   <text width="95" height="20" x="1446" y="338" style="fill:black;" font-family="Arial" font-size="16px">type</text>
   <rect width="95" height="20" x="1441" y="344" style="fill:none;stroke:black;"/>
   <text width="95" height="20" x="1446" y="358" style="fill:black;" font-family="Arial" font-size="16px">discount</text>
   <rect width="95" height="20" x="1441" y="364" style="fill:none;stroke:black;"/>
   <text width="95" height="20" x="1446" y="378" style="fill:black;" font-family="Arial" font-size="16px">price</text>
   <rect width="95" height="20" x="1441" y="384" style="fill:none;stroke:black;"/>
   <text width="95" height="20" x="1446" y="398" style="fill:black;" font-family="Arial" font-size="16px">duration</text>
   <rect width="113" height="20" x="885" y="59" style="fill:#007;stroke:black;"/>
   <text width="113" height="20" x="890" y="73" style="fill:#fff;" font-family="Arial" font-size="16px"> user</text>
   <rect width="113" height="20" x="885" y="79" style="fill:#aea;stroke:black;"/>
   <text width="113" height="20" x="890" y="93" style="fill:black;" font-family="Arial" font-size="16px">id</text>
   <rect width="113" height="20" x="885" y="99" style="fill:none;stroke:black;"/>
   <text width="113" height="20" x="890" y="113" style="fill:black;" font-family="Arial" font-size="16px">name</text>
   <rect width="113" height="20" x="885" y="119" style="fill:none;stroke:black;"/>
   <text width="113" height="20" x="890" y="133" style="fill:black;" font-family="Arial" font-size="16px">surname</text>
   <rect width="113" height="20" x="885" y="139" style="fill:none;stroke:black;"/>
   <text width="113" height="20" x="890" y="153" style="fill:black;" font-family="Arial" font-size="16px">email</text>
   <rect width="113" height="20" x="885" y="159" style="fill:none;stroke:black;"/>
   <text width="113" height="20" x="890" y="173" style="fill:black;" font-family="Arial" font-size="16px">password</text>
   <rect width="113" height="20" x="885" y="179" style="fill:none;stroke:black;"/>
   <text width="113" height="20" x="890" y="193" style="fill:black;" font-family="Arial" font-size="16px">telephone</text>
   <rect width="113" height="20" x="885" y="199" style="fill:none;stroke:black;"/>
   <text width="113" height="20" x="890" y="213" style="fill:black;" font-family="Arial" font-size="16px">birth_day</text>
   <rect width="113" height="20" x="885" y="219" style="fill:none;stroke:black;"/>
   <text width="113" height="20" x="890" y="233" style="fill:black;" font-family="Arial" font-size="16px">id_subscription</text>
   <rect width="93" height="20" x="949" y="567" style="fill:#007;stroke:black;"/>
   <text width="93" height="20" x="954" y="581" style="fill:#fff;" font-family="Arial" font-size="16px"> uses</text>
   <rect width="93" height="20" x="949" y="587" style="fill:none;stroke:black;"/>
   <text width="93" height="20" x="954" y="601" style="fill:black;" font-family="Arial" font-size="16px">id_purchase</text>
   <rect width="93" height="20" x="949" y="607" style="fill:none;stroke:black;"/>
   <text width="93" height="20" x="954" y="621" style="fill:black;" font-family="Arial" font-size="16px">id_coupon</text>
   <rect width="62" height="20" x="585" y="252" style="fill:#007;stroke:black;"/>
   <text width="62" height="20" x="590" y="266" style="fill:#fff;" font-family="Arial" font-size="16px"> wishlist</text>
   <rect width="62" height="20" x="585" y="272" style="fill:none;stroke:black;"/>
   <text width="62" height="20" x="590" y="286" style="fill:black;" font-family="Arial" font-size="16px">id_user</text>
   <rect width="62" height="20" x="585" y="292" style="fill:none;stroke:black;"/>
   <text width="62" height="20" x="590" y="306" style="fill:black;" font-family="Arial" font-size="16px">id_book</text>
   <rect width="73" height="20" x="163" y="530" style="fill:#007;stroke:black;"/>
   <text width="73" height="20" x="168" y="544" style="fill:#fff;" font-family="Arial" font-size="16px"> writes</text>
   <rect width="73" height="20" x="163" y="550" style="fill:none;stroke:black;"/>
   <text width="73" height="20" x="168" y="564" style="fill:black;" font-family="Arial" font-size="16px">id_author</text>
   <rect width="73" height="20" x="163" y="570" style="fill:none;stroke:black;"/>
   <text width="73" height="20" x="168" y="584" style="fill:black;" font-family="Arial" font-size="16px">id_book</text>
</svg>
